{
	"patcher" : 	{
		"fileversion" : 1,
		"appversion" : 		{
			"major" : 8,
			"minor" : 6,
			"revision" : 2,
			"architecture" : "x64",
			"modernui" : 1
		}
,
		"classnamespace" : "box",
		"rect" : [ 34.0, 100.0, 1199.0, 848.0 ],
		"bglocked" : 0,
		"openinpresentation" : 0,
		"default_fontsize" : 12.0,
		"default_fontface" : 0,
		"default_fontname" : "Arial",
		"gridonopen" : 1,
		"gridsize" : [ 15.0, 15.0 ],
		"gridsnaponopen" : 1,
		"objectsnaponopen" : 1,
		"statusbarvisible" : 2,
		"toolbarvisible" : 1,
		"lefttoolbarpinned" : 0,
		"toptoolbarpinned" : 0,
		"righttoolbarpinned" : 0,
		"bottomtoolbarpinned" : 0,
		"toolbars_unpinned_last_save" : 0,
		"tallnewobj" : 0,
		"boxanimatetime" : 200,
		"enablehscroll" : 1,
		"enablevscroll" : 1,
		"devicewidth" : 0.0,
		"description" : "",
		"digest" : "",
		"tags" : "",
		"style" : "",
		"subpatcher_template" : "",
		"assistshowspatchername" : 0,
		"boxes" : [ 			{
				"box" : 				{
					"id" : "obj-2",
					"maxclass" : "preset",
					"numinlets" : 1,
					"numoutlets" : 5,
					"outlettype" : [ "preset", "int", "preset", "int", "" ],
					"patching_rect" : [ 713.0, 144.0, 100.0, 40.0 ],
					"preset_data" : [ 						{
							"number" : 1,
							"data" : [ 4, "obj-13", "function", "clear", 7, "obj-13", "function", "add", 0.0, 0.0, 0, 7, "obj-13", "function", "add", 2.127659574468085, 1.0, 0, 7, "obj-13", "function", "add", 8.51063829787234, 0.266666666666667, 0, 7, "obj-13", "function", "add", 100.0, 0.0, 0, 5, "obj-13", "function", "domain", 100.0, 6, "obj-13", "function", "range", 0.0, 1.0, 5, "obj-13", "function", "mode", 0, 5, "obj-20", "live.gain~", "float", 0.0, 5, "obj-22", "toggle", "int", 1, 5, "obj-29", "flonum", "float", 220.0, 5, "obj-31", "flonum", "float", 0.99099999666214, 5, "obj-34", "live.gain~", "float", 0.0, 5, "obj-37", "flonum", "float", 0.990000009536743, 5, "obj-38", "flonum", "float", 1.0 ]
						}
, 						{
							"number" : 2,
							"data" : [ 4, "obj-13", "function", "clear", 7, "obj-13", "function", "add", 0.0, 0.0, 0, 7, "obj-13", "function", "add", 2.127659574468085, 1.0, 0, 7, "obj-13", "function", "add", 8.51063829787234, 0.266666666666667, 0, 7, "obj-13", "function", "add", 100.0, 0.0, 0, 5, "obj-13", "function", "domain", 100.0, 6, "obj-13", "function", "range", 0.0, 1.0, 5, "obj-13", "function", "mode", 0, 5, "obj-20", "live.gain~", "float", 0.0, 5, "obj-22", "toggle", "int", 1, 5, "obj-29", "flonum", "float", 220.0, 5, "obj-31", "flonum", "float", 0.99099999666214, 5, "obj-34", "live.gain~", "float", 0.0, 5, "obj-37", "flonum", "float", 0.670000016689301, 5, "obj-38", "flonum", "float", 13.5 ]
						}
, 						{
							"number" : 3,
							"data" : [ 4, "obj-13", "function", "clear", 7, "obj-13", "function", "add", 0.0, 0.0, 0, 7, "obj-13", "function", "add", 2.127659574468085, 1.0, 0, 7, "obj-13", "function", "add", 8.51063829787234, 0.266666666666667, 0, 7, "obj-13", "function", "add", 100.0, 0.0, 0, 5, "obj-13", "function", "domain", 100.0, 6, "obj-13", "function", "range", 0.0, 1.0, 5, "obj-13", "function", "mode", 0, 5, "obj-20", "live.gain~", "float", 0.0, 5, "obj-22", "toggle", "int", 1, 5, "obj-29", "flonum", "float", 220.0, 5, "obj-31", "flonum", "float", 0.99099999666214, 5, "obj-34", "live.gain~", "float", 0.0, 5, "obj-37", "flonum", "float", 0.670000016689301, 5, "obj-38", "flonum", "float", 171.0 ]
						}
, 						{
							"number" : 4,
							"data" : [ 4, "obj-13", "function", "clear", 7, "obj-13", "function", "add", 0.0, 0.0, 0, 7, "obj-13", "function", "add", 2.127659574468085, 1.0, 0, 7, "obj-13", "function", "add", 8.51063829787234, 0.266666666666667, 0, 7, "obj-13", "function", "add", 100.0, 0.0, 0, 5, "obj-13", "function", "domain", 100.0, 6, "obj-13", "function", "range", 0.0, 1.0, 5, "obj-13", "function", "mode", 0, 5, "obj-20", "live.gain~", "float", -2.976377964019775, 5, "obj-22", "toggle", "int", 1, 5, "obj-29", "flonum", "float", 31.0, 5, "obj-31", "flonum", "float", 0.813000023365021, 5, "obj-34", "live.gain~", "float", -70.0, 5, "obj-37", "flonum", "float", 0.990000009536743, 5, "obj-38", "flonum", "float", 1.0 ]
						}
, 						{
							"number" : 5,
							"data" : [ 4, "obj-13", "function", "clear", 7, "obj-13", "function", "add", 0.0, 0.0, 0, 7, "obj-13", "function", "add", 2.127659574468085, 1.0, 0, 7, "obj-13", "function", "add", 8.51063829787234, 0.266666666666667, 0, 7, "obj-13", "function", "add", 100.0, 0.0, 0, 5, "obj-13", "function", "domain", 100.0, 6, "obj-13", "function", "range", 0.0, 1.0, 5, "obj-13", "function", "mode", 0, 5, "obj-20", "live.gain~", "float", 0.0, 5, "obj-22", "toggle", "int", 1, 5, "obj-29", "flonum", "float", 8.0, 5, "obj-31", "flonum", "float", 0.949999988079071, 5, "obj-34", "live.gain~", "float", 0.0, 5, "obj-37", "flonum", "float", 0.990000009536743, 5, "obj-38", "flonum", "float", 1.0 ]
						}
, 						{
							"number" : 6,
							"data" : [ 4, "obj-13", "function", "clear", 7, "obj-13", "function", "add", 0.0, 0.0, 0, 7, "obj-13", "function", "add", 2.127659574468085, 1.0, 0, 7, "obj-13", "function", "add", 8.51063829787234, 0.266666666666667, 0, 7, "obj-13", "function", "add", 100.0, 0.0, 0, 5, "obj-13", "function", "domain", 100.0, 6, "obj-13", "function", "range", 0.0, 1.0, 5, "obj-13", "function", "mode", 0, 5, "obj-20", "live.gain~", "float", -70.0, 5, "obj-22", "toggle", "int", 1, 5, "obj-29", "flonum", "float", 3020.0, 5, "obj-31", "flonum", "float", 0.813000023365021, 5, "obj-34", "live.gain~", "float", -2.606705188751221, 5, "obj-37", "flonum", "float", 0.523999989032745, 5, "obj-38", "flonum", "float", 1346.0 ]
						}
, 						{
							"number" : 7,
							"data" : [ 4, "obj-13", "function", "clear", 7, "obj-13", "function", "add", 0.0, 0.0, 0, 7, "obj-13", "function", "add", 2.127659574468085, 1.0, 0, 7, "obj-13", "function", "add", 8.51063829787234, 0.266666666666667, 0, 7, "obj-13", "function", "add", 100.0, 0.0, 0, 5, "obj-13", "function", "domain", 100.0, 6, "obj-13", "function", "range", 0.0, 1.0, 5, "obj-13", "function", "mode", 0, 5, "obj-20", "live.gain~", "float", -70.0, 5, "obj-22", "toggle", "int", 1, 5, "obj-29", "flonum", "float", 220.0, 5, "obj-31", "flonum", "float", 0.99099999666214, 5, "obj-34", "live.gain~", "float", 0.0, 5, "obj-37", "flonum", "float", 0.100000001490116, 5, "obj-38", "flonum", "float", 20000.0 ]
						}
, 						{
							"number" : 8,
							"data" : [ 4, "obj-13", "function", "clear", 7, "obj-13", "function", "add", 0.0, 0.0, 0, 7, "obj-13", "function", "add", 2.127659574468085, 1.0, 0, 7, "obj-13", "function", "add", 8.51063829787234, 0.266666666666667, 0, 7, "obj-13", "function", "add", 100.0, 0.0, 0, 5, "obj-13", "function", "domain", 100.0, 6, "obj-13", "function", "range", 0.0, 1.0, 5, "obj-13", "function", "mode", 0, 5, "obj-20", "live.gain~", "float", -70.0, 5, "obj-22", "toggle", "int", 1, 5, "obj-29", "flonum", "float", 5.0, 5, "obj-31", "flonum", "float", 0.999000012874603, 5, "obj-34", "live.gain~", "float", -7.550775051116943, 5, "obj-37", "flonum", "float", 0.990000009536743, 5, "obj-38", "flonum", "float", 20000.0 ]
						}
 ]
				}

			}
, 			{
				"box" : 				{
					"format" : 6,
					"id" : "obj-38",
					"maxclass" : "flonum",
					"numinlets" : 1,
					"numoutlets" : 2,
					"outlettype" : [ "", "bang" ],
					"parameter_enable" : 0,
					"patching_rect" : [ 503.0, 175.0, 50.0, 22.0 ]
				}

			}
, 			{
				"box" : 				{
					"format" : 6,
					"id" : "obj-37",
					"maxclass" : "flonum",
					"numinlets" : 1,
					"numoutlets" : 2,
					"outlettype" : [ "", "bang" ],
					"parameter_enable" : 0,
					"patching_rect" : [ 442.0, 175.0, 50.0, 22.0 ]
				}

			}
, 			{
				"box" : 				{
					"id" : "obj-36",
					"maxclass" : "message",
					"numinlets" : 2,
					"numoutlets" : 1,
					"outlettype" : [ "" ],
					"patching_rect" : [ 503.0, 216.0, 41.0, 22.0 ],
					"text" : "del $1"
				}

			}
, 			{
				"box" : 				{
					"id" : "obj-35",
					"maxclass" : "message",
					"numinlets" : 2,
					"numoutlets" : 1,
					"outlettype" : [ "" ],
					"patching_rect" : [ 442.0, 216.0, 41.0, 22.0 ],
					"text" : "AP $1"
				}

			}
, 			{
				"box" : 				{
					"channels" : 1,
					"id" : "obj-34",
					"lastchannelcount" : 0,
					"maxclass" : "live.gain~",
					"numinlets" : 1,
					"numoutlets" : 4,
					"outlettype" : [ "signal", "", "float", "list" ],
					"parameter_enable" : 1,
					"patching_rect" : [ 346.5, 311.0, 48.0, 136.0 ],
					"saved_attribute_attributes" : 					{
						"valueof" : 						{
							"parameter_longname" : "live.gain~[1]",
							"parameter_mmax" : 6.0,
							"parameter_mmin" : -70.0,
							"parameter_modmode" : 3,
							"parameter_shortname" : "lp+ap",
							"parameter_type" : 0,
							"parameter_unitstyle" : 4
						}

					}
,
					"varname" : "live.gain~[1]"
				}

			}
, 			{
				"box" : 				{
					"id" : "obj-33",
					"maxclass" : "newobj",
					"numinlets" : 1,
					"numoutlets" : 1,
					"outlettype" : [ "signal" ],
					"patching_rect" : [ 485.0, 318.0, 129.0, 22.0 ],
					"text" : "gen~ stiff-string-AP-LP"
				}

			}
, 			{
				"box" : 				{
					"id" : "obj-32",
					"maxclass" : "newobj",
					"numinlets" : 2,
					"numoutlets" : 0,
					"patching_rect" : [ 211.5, 479.0, 55.0, 22.0 ],
					"text" : "dac~ 1 2"
				}

			}
, 			{
				"box" : 				{
					"format" : 6,
					"id" : "obj-31",
					"maxclass" : "flonum",
					"numinlets" : 1,
					"numoutlets" : 2,
					"outlettype" : [ "", "bang" ],
					"parameter_enable" : 0,
					"patching_rect" : [ 379.0, 175.0, 50.0, 22.0 ]
				}

			}
, 			{
				"box" : 				{
					"id" : "obj-30",
					"maxclass" : "message",
					"numinlets" : 2,
					"numoutlets" : 1,
					"outlettype" : [ "" ],
					"patching_rect" : [ 379.0, 216.0, 35.0, 22.0 ],
					"text" : "fb $1"
				}

			}
, 			{
				"box" : 				{
					"format" : 6,
					"id" : "obj-29",
					"maxclass" : "flonum",
					"numinlets" : 1,
					"numoutlets" : 2,
					"outlettype" : [ "", "bang" ],
					"parameter_enable" : 0,
					"patching_rect" : [ 314.0, 175.0, 50.0, 22.0 ]
				}

			}
, 			{
				"box" : 				{
					"id" : "obj-25",
					"maxclass" : "message",
					"numinlets" : 2,
					"numoutlets" : 1,
					"outlettype" : [ "" ],
					"patching_rect" : [ 314.0, 216.0, 46.0, 22.0 ],
					"text" : "freq $1"
				}

			}
, 			{
				"box" : 				{
					"id" : "obj-22",
					"maxclass" : "toggle",
					"numinlets" : 1,
					"numoutlets" : 1,
					"outlettype" : [ "int" ],
					"parameter_enable" : 0,
					"patching_rect" : [ 211.5, 27.0, 24.0, 24.0 ]
				}

			}
, 			{
				"box" : 				{
					"channels" : 1,
					"id" : "obj-20",
					"lastchannelcount" : 0,
					"maxclass" : "live.gain~",
					"numinlets" : 1,
					"numoutlets" : 4,
					"outlettype" : [ "signal", "", "float", "list" ],
					"parameter_enable" : 1,
					"patching_rect" : [ 211.5, 311.0, 48.0, 136.0 ],
					"saved_attribute_attributes" : 					{
						"valueof" : 						{
							"parameter_longname" : "live.gain~",
							"parameter_mmax" : 6.0,
							"parameter_mmin" : -70.0,
							"parameter_modmode" : 3,
							"parameter_shortname" : "lp",
							"parameter_type" : 0,
							"parameter_unitstyle" : 4
						}

					}
,
					"varname" : "live.gain~"
				}

			}
, 			{
				"box" : 				{
					"id" : "obj-19",
					"maxclass" : "newobj",
					"numinlets" : 1,
					"numoutlets" : 1,
					"outlettype" : [ "signal" ],
					"patching_rect" : [ 51.0, 327.0, 115.0, 22.0 ],
					"text" : "gen~ karplus-strong"
				}

			}
, 			{
				"box" : 				{
					"id" : "obj-18",
					"maxclass" : "newobj",
					"numinlets" : 2,
					"numoutlets" : 1,
					"outlettype" : [ "bang" ],
					"patching_rect" : [ 244.0, 27.0, 69.0, 22.0 ],
					"text" : "metro 1000"
				}

			}
, 			{
				"box" : 				{
					"id" : "obj-17",
					"maxclass" : "newobj",
					"numinlets" : 1,
					"numoutlets" : 1,
					"outlettype" : [ "" ],
					"patching_rect" : [ 442.0, 27.0, 142.0, 22.0 ],
					"text" : "loadmess setdomain 100"
				}

			}
, 			{
				"box" : 				{
					"id" : "obj-16",
					"maxclass" : "newobj",
					"numinlets" : 1,
					"numoutlets" : 1,
					"outlettype" : [ "" ],
					"patching_rect" : [ 314.0, 27.0, 121.0, 22.0 ],
					"text" : "loadmess range 0. 1."
				}

			}
, 			{
				"box" : 				{
					"id" : "obj-14",
					"maxclass" : "newobj",
					"numinlets" : 2,
					"numoutlets" : 2,
					"outlettype" : [ "signal", "bang" ],
					"patching_rect" : [ 265.0, 175.0, 34.0, 22.0 ],
					"text" : "line~"
				}

			}
, 			{
				"box" : 				{
					"addpoints" : [ 0.0, 0.0, 0, 2.127659574468085, 1.0, 0, 8.51063829787234, 0.266666666666667, 0, 100.0, 0.0, 0 ],
					"classic_curve" : 1,
					"domain" : 100.0,
					"id" : "obj-13",
					"maxclass" : "function",
					"numinlets" : 1,
					"numoutlets" : 4,
					"outlettype" : [ "float", "", "", "bang" ],
					"parameter_enable" : 0,
					"patching_rect" : [ 244.0, 66.0, 200.0, 100.0 ]
				}

			}
, 			{
				"box" : 				{
					"id" : "obj-12",
					"maxclass" : "newobj",
					"numinlets" : 2,
					"numoutlets" : 1,
					"outlettype" : [ "signal" ],
					"patching_rect" : [ 211.5, 216.0, 29.5, 22.0 ],
					"text" : "*~"
				}

			}
, 			{
				"box" : 				{
					"id" : "obj-11",
					"maxclass" : "newobj",
					"numinlets" : 1,
					"numoutlets" : 1,
					"outlettype" : [ "signal" ],
					"patching_rect" : [ 211.5, 175.0, 44.0, 22.0 ],
					"text" : "noise~"
				}

			}
, 			{
				"box" : 				{
					"id" : "obj-10",
					"maxclass" : "newobj",
					"numinlets" : 1,
					"numoutlets" : 1,
					"outlettype" : [ "" ],
					"patching_rect" : [ 143.0, 66.0, 74.0, 22.0 ],
					"text" : "loadmess -3"
				}

			}
, 			{
				"box" : 				{
					"id" : "obj-9",
					"maxclass" : "newobj",
					"numinlets" : 1,
					"numoutlets" : 1,
					"outlettype" : [ "" ],
					"patching_rect" : [ 143.0, 106.0, 39.0, 22.0 ],
					"text" : "dbtoa"
				}

			}
, 			{
				"box" : 				{
					"id" : "obj-8",
					"maxclass" : "message",
					"numinlets" : 2,
					"numoutlets" : 1,
					"outlettype" : [ "" ],
					"patching_rect" : [ 143.0, 140.0, 32.0, 22.0 ],
					"text" : "$1 5"
				}

			}
, 			{
				"box" : 				{
					"id" : "obj-5",
					"maxclass" : "newobj",
					"numinlets" : 3,
					"numoutlets" : 2,
					"outlettype" : [ "", "bang" ],
					"patching_rect" : [ 143.0, 175.0, 41.0, 22.0 ],
					"text" : "line 0."
				}

			}
, 			{
				"box" : 				{
					"id" : "obj-4",
					"maxclass" : "newobj",
					"numinlets" : 2,
					"numoutlets" : 1,
					"outlettype" : [ "signal" ],
					"patching_rect" : [ 124.0, 216.0, 29.5, 22.0 ],
					"text" : "*~"
				}

			}
, 			{
				"box" : 				{
					"id" : "obj-1",
					"maxclass" : "newobj",
					"numinlets" : 1,
					"numoutlets" : 1,
					"outlettype" : [ "signal" ],
					"patching_rect" : [ 124.0, 27.0, 74.0, 22.0 ],
					"text" : "receive~ in1"
				}

			}
 ],
		"lines" : [ 			{
				"patchline" : 				{
					"destination" : [ "obj-4", 0 ],
					"source" : [ "obj-1", 0 ]
				}

			}
, 			{
				"patchline" : 				{
					"destination" : [ "obj-9", 0 ],
					"source" : [ "obj-10", 0 ]
				}

			}
, 			{
				"patchline" : 				{
					"destination" : [ "obj-12", 0 ],
					"source" : [ "obj-11", 0 ]
				}

			}
, 			{
				"patchline" : 				{
					"destination" : [ "obj-19", 0 ],
					"order" : 1,
					"source" : [ "obj-12", 0 ]
				}

			}
, 			{
				"patchline" : 				{
					"destination" : [ "obj-33", 0 ],
					"order" : 0,
					"source" : [ "obj-12", 0 ]
				}

			}
, 			{
				"patchline" : 				{
					"destination" : [ "obj-14", 0 ],
					"source" : [ "obj-13", 1 ]
				}

			}
, 			{
				"patchline" : 				{
					"destination" : [ "obj-12", 1 ],
					"source" : [ "obj-14", 0 ]
				}

			}
, 			{
				"patchline" : 				{
					"destination" : [ "obj-13", 0 ],
					"source" : [ "obj-16", 0 ]
				}

			}
, 			{
				"patchline" : 				{
					"destination" : [ "obj-13", 0 ],
					"source" : [ "obj-17", 0 ]
				}

			}
, 			{
				"patchline" : 				{
					"destination" : [ "obj-13", 0 ],
					"source" : [ "obj-18", 0 ]
				}

			}
, 			{
				"patchline" : 				{
					"destination" : [ "obj-20", 0 ],
					"source" : [ "obj-19", 0 ]
				}

			}
, 			{
				"patchline" : 				{
					"destination" : [ "obj-32", 0 ],
					"source" : [ "obj-20", 0 ]
				}

			}
, 			{
				"patchline" : 				{
					"destination" : [ "obj-18", 0 ],
					"source" : [ "obj-22", 0 ]
				}

			}
, 			{
				"patchline" : 				{
					"destination" : [ "obj-19", 0 ],
					"order" : 1,
					"source" : [ "obj-25", 0 ]
				}

			}
, 			{
				"patchline" : 				{
					"destination" : [ "obj-33", 0 ],
					"order" : 0,
					"source" : [ "obj-25", 0 ]
				}

			}
, 			{
				"patchline" : 				{
					"destination" : [ "obj-25", 0 ],
					"source" : [ "obj-29", 0 ]
				}

			}
, 			{
				"patchline" : 				{
					"destination" : [ "obj-19", 0 ],
					"order" : 1,
					"source" : [ "obj-30", 0 ]
				}

			}
, 			{
				"patchline" : 				{
					"destination" : [ "obj-33", 0 ],
					"order" : 0,
					"source" : [ "obj-30", 0 ]
				}

			}
, 			{
				"patchline" : 				{
					"destination" : [ "obj-30", 0 ],
					"source" : [ "obj-31", 0 ]
				}

			}
, 			{
				"patchline" : 				{
					"destination" : [ "obj-34", 0 ],
					"source" : [ "obj-33", 0 ]
				}

			}
, 			{
				"patchline" : 				{
					"destination" : [ "obj-32", 1 ],
					"source" : [ "obj-34", 0 ]
				}

			}
, 			{
				"patchline" : 				{
					"destination" : [ "obj-33", 0 ],
					"source" : [ "obj-35", 0 ]
				}

			}
, 			{
				"patchline" : 				{
					"destination" : [ "obj-33", 0 ],
					"source" : [ "obj-36", 0 ]
				}

			}
, 			{
				"patchline" : 				{
					"destination" : [ "obj-35", 0 ],
					"source" : [ "obj-37", 0 ]
				}

			}
, 			{
				"patchline" : 				{
					"destination" : [ "obj-36", 0 ],
					"source" : [ "obj-38", 0 ]
				}

			}
, 			{
				"patchline" : 				{
					"destination" : [ "obj-19", 0 ],
					"source" : [ "obj-4", 0 ]
				}

			}
, 			{
				"patchline" : 				{
					"destination" : [ "obj-4", 1 ],
					"source" : [ "obj-5", 0 ]
				}

			}
, 			{
				"patchline" : 				{
					"destination" : [ "obj-5", 0 ],
					"source" : [ "obj-8", 0 ]
				}

			}
, 			{
				"patchline" : 				{
					"destination" : [ "obj-8", 0 ],
					"source" : [ "obj-9", 0 ]
				}

			}
 ],
		"parameters" : 		{
			"obj-20" : [ "live.gain~", "lp", 0 ],
			"obj-34" : [ "live.gain~[1]", "lp+ap", 0 ],
			"parameterbanks" : 			{
				"0" : 				{
					"index" : 0,
					"name" : "",
					"parameters" : [ "-", "-", "-", "-", "-", "-", "-", "-" ]
				}

			}
,
			"inherited_shortname" : 1
		}
,
		"dependency_cache" : [ 			{
				"name" : "karplus-strong.gendsp",
				"bootpath" : "~/Documents/Universidad/SS24/physical-modelling-ss24/week-05-karplus-strong",
				"patcherrelativepath" : ".",
				"type" : "gDSP",
				"implicit" : 1
			}
, 			{
				"name" : "stiff-string-AP-LP.gendsp",
				"bootpath" : "~/Documents/Universidad/SS24/physical-modelling-ss24/week-05-karplus-strong",
				"patcherrelativepath" : ".",
				"type" : "gDSP",
				"implicit" : 1
			}
 ],
		"autosave" : 0
	}

}
